<svg xmlns="http://www.w3.org/2000/svg" xmlns:xlink="http://www.w3.org/1999/xlink" width="3628" zoomAndPan="magnify" viewBox="0 0 2721 1020.749948" height="1361" preserveAspectRatio="xMidYMid meet" version="1.2"><defs/><g id="ab2d958dfb"><g style="fill:#ffffff;fill-opacity:1;"><g transform="translate(32.15866, 769.586374)"><path style="stroke:none" d="M 567.25 -207.546875 C 581.019531 -207.546875 590.722656 -202.535156 596.359375 -192.515625 C 601.992188 -182.503906 605.28125 -170.765625 606.21875 -157.296875 C 607.164062 -143.835938 607.320312 -132.414062 606.6875 -123.03125 C 606.6875 -101.113281 602.773438 -80.132812 594.953125 -60.09375 C 587.128906 -40.0625 575.078125 -23.628906 558.796875 -10.796875 C 542.515625 2.035156 520.601562 8.453125 493.0625 8.453125 C 468.007812 8.453125 445.78125 1.722656 426.375 -11.734375 C 406.96875 -25.203125 388.96875 -41.796875 372.375 -61.515625 C 355.78125 -81.234375 339.1875 -100.953125 322.59375 -120.671875 C 306.007812 -140.398438 288.320312 -157.304688 269.53125 -171.390625 C 250.75 -185.484375 229.148438 -192.84375 204.734375 -193.46875 C 196.597656 -192.84375 192.375 -196.128906 192.0625 -203.328125 C 191.75 -210.523438 195.660156 -213.5 203.796875 -212.25 C 210.679688 -211.625 214.28125 -211 214.59375 -210.375 C 214.90625 -209.75 218.820312 -209.4375 226.34375 -209.4375 C 272.664062 -209.4375 314.609375 -216.320312 352.171875 -230.09375 C 389.742188 -243.863281 419.488281 -264.367188 441.40625 -291.609375 C 463.320312 -318.847656 474.28125 -352.5 474.28125 -392.5625 C 474.28125 -452.664062 452.050781 -497.117188 407.59375 -525.921875 C 363.132812 -554.722656 302.71875 -569.125 226.34375 -569.125 C 217.570312 -569.125 210.992188 -569.125 206.609375 -569.125 C 202.234375 -569.125 198.476562 -569.125 195.34375 -569.125 L 198.15625 -568.1875 C 186.257812 -568.1875 176.082031 -565.679688 167.625 -560.671875 C 159.175781 -555.660156 154.953125 -545.019531 154.953125 -528.75 L 154.953125 -61.984375 C 154.953125 -45.703125 157.613281 -34.585938 162.9375 -28.640625 C 168.257812 -22.691406 175.457031 -19.40625 184.53125 -18.78125 C 193.613281 -18.15625 203.476562 -16.90625 214.125 -15.03125 C 218.507812 -14.40625 220.703125 -11.585938 220.703125 -6.578125 C 220.703125 -1.566406 218.195312 0.9375 213.1875 0.9375 L 27.234375 0.9375 C 22.222656 0.9375 19.71875 -1.566406 19.71875 -6.578125 C 19.71875 -11.585938 21.910156 -14.40625 26.296875 -15.03125 C 36.941406 -16.90625 46.644531 -18.15625 55.40625 -18.78125 C 64.175781 -19.40625 71.378906 -22.691406 77.015625 -28.640625 C 82.648438 -34.585938 85.46875 -45.703125 85.46875 -61.984375 L 85.46875 -526.859375 C 85.46875 -543.765625 82.648438 -555.035156 77.015625 -560.671875 C 71.378906 -566.304688 64.175781 -569.59375 55.40625 -570.53125 C 46.644531 -571.476562 36.941406 -572.578125 26.296875 -573.828125 C 21.910156 -575.078125 19.71875 -578.050781 19.71875 -582.75 C 19.71875 -587.445312 22.222656 -589.796875 27.234375 -589.796875 L 299.59375 -589.796875 C 344.664062 -589.796875 386.453125 -582.4375 424.953125 -567.71875 C 463.460938 -553.007812 494.613281 -531.097656 518.40625 -501.984375 C 542.207031 -472.867188 554.109375 -436.707031 554.109375 -393.5 C 554.109375 -360.945312 547.21875 -332.617188 533.4375 -308.515625 C 519.664062 -284.410156 501.351562 -264.53125 478.5 -248.875 C 455.644531 -233.21875 430.128906 -221.003906 401.953125 -212.234375 C 373.785156 -203.472656 344.988281 -197.84375 315.5625 -195.34375 C 334.96875 -190.332031 351.867188 -181.878906 366.265625 -169.984375 C 380.671875 -158.085938 393.820312 -144.78125 405.71875 -130.0625 C 417.613281 -115.351562 429.351562 -101.269531 440.9375 -87.8125 C 452.519531 -74.351562 464.882812 -63.082031 478.03125 -54 C 491.175781 -44.925781 506.515625 -40.390625 524.046875 -40.390625 C 540.953125 -40.390625 554.726562 -45.394531 565.375 -55.40625 C 576.019531 -65.425781 582.125 -77.164062 583.6875 -90.625 C 585.25 -104.09375 581.335938 -115.832031 571.953125 -125.84375 C 563.804688 -135.863281 555.976562 -144.628906 548.46875 -152.140625 C 540.957031 -159.648438 537.203125 -168.414062 537.203125 -178.4375 C 537.203125 -187.207031 540.175781 -194.25 546.125 -199.5625 C 552.070312 -204.882812 559.113281 -207.546875 567.25 -207.546875 Z M 567.25 -207.546875 "/></g></g><g style="fill:#ffffff;fill-opacity:1;"><g transform="translate(658.493781, 769.586374)"><path style="stroke:none" d="M 408.53125 -15.03125 C 413.539062 -15.03125 416.203125 -12.835938 416.515625 -8.453125 C 416.828125 -4.066406 414.476562 -1.25 409.46875 0 C 398.195312 3.132812 387.242188 4.703125 376.609375 4.703125 C 360.953125 4.703125 346.863281 0.945312 334.34375 -6.5625 C 321.820312 -14.082031 315.5625 -28.175781 315.5625 -48.84375 C 315.5625 -56.976562 315.5625 -64.957031 315.5625 -72.78125 C 315.5625 -80.613281 315.5625 -88.285156 315.5625 -95.796875 C 304.914062 -67.617188 286.128906 -43.195312 259.203125 -22.53125 C 232.285156 -1.875 195.347656 8.453125 148.390625 8.453125 C 106.441406 8.453125 74.351562 -2.5 52.125 -24.40625 C 29.894531 -46.320312 18.78125 -70.742188 18.78125 -97.671875 C 18.78125 -125.847656 25.976562 -148.859375 40.375 -166.703125 C 54.78125 -184.546875 73.097656 -198.316406 95.328125 -208.015625 C 117.554688 -217.722656 141.347656 -224.769531 166.703125 -229.15625 C 192.054688 -233.539062 216.003906 -236.359375 238.546875 -237.609375 C 260.460938 -238.859375 278.773438 -239.640625 293.484375 -239.953125 C 308.203125 -240.265625 315.5625 -241.988281 315.5625 -245.125 C 315.5625 -257.644531 315.5625 -270.007812 315.5625 -282.21875 C 315.5625 -294.425781 315.5625 -306.789062 315.5625 -319.3125 C 315.5625 -341.226562 310.082031 -359.070312 299.125 -372.84375 C 288.164062 -386.613281 274.234375 -396.785156 257.328125 -403.359375 C 240.421875 -409.941406 222.265625 -413.234375 202.859375 -413.234375 C 177.816406 -413.234375 154.960938 -408.535156 134.296875 -399.140625 C 115.515625 -389.742188 105.5 -377.0625 104.25 -361.09375 C 103 -345.132812 105.191406 -330.894531 110.828125 -318.375 C 117.710938 -302.71875 117.394531 -290.191406 109.875 -280.796875 C 102.363281 -271.410156 93.285156 -266.71875 82.640625 -266.71875 C 73.878906 -266.71875 65.738281 -270.472656 58.21875 -277.984375 C 50.707031 -285.503906 46.640625 -297.71875 46.015625 -314.625 C 46.015625 -320.882812 47.582031 -328.707031 50.71875 -338.09375 C 50.71875 -338.71875 50.71875 -339.03125 50.71875 -339.03125 C 50.71875 -339.03125 50.71875 -339.34375 50.71875 -339.96875 C 51.34375 -341.226562 51.8125 -342.328125 52.125 -343.265625 C 52.4375 -344.203125 52.90625 -344.984375 53.53125 -345.609375 C 54.78125 -349.992188 56.5 -354.375 58.6875 -358.75 C 60.882812 -363.132812 63.234375 -366.894531 65.734375 -370.03125 C 67.617188 -373.15625 69.5 -375.8125 71.375 -378 C 73.25 -380.195312 75.128906 -382.546875 77.015625 -385.046875 C 77.640625 -385.679688 78.265625 -386 78.890625 -386 C 80.140625 -388.5 81.703125 -390.53125 83.578125 -392.09375 C 85.460938 -393.664062 87.34375 -395.078125 89.21875 -396.328125 C 106.125 -410.722656 126.003906 -421.363281 148.859375 -428.25 C 171.710938 -435.144531 194.722656 -438.59375 217.890625 -438.59375 C 245.429688 -438.59375 271.410156 -434.050781 295.828125 -424.96875 C 320.253906 -415.882812 340.289062 -402.578125 355.9375 -385.046875 C 371.59375 -367.515625 379.421875 -345.601562 379.421875 -319.3125 C 379.421875 -277.988281 379.421875 -234.941406 379.421875 -190.171875 C 379.421875 -145.410156 379.421875 -102.054688 379.421875 -60.109375 C 379.421875 -40.691406 382.082031 -28.320312 387.40625 -23 C 392.726562 -17.6875 399.769531 -15.03125 408.53125 -15.03125 Z M 168.109375 -21.59375 C 182.503906 -21.59375 198 -24.097656 214.59375 -29.109375 C 231.1875 -34.117188 246.992188 -43.039062 262.015625 -55.875 C 277.046875 -68.707031 289.570312 -86.238281 299.59375 -108.46875 C 309.613281 -130.695312 314.9375 -158.71875 315.5625 -192.53125 C 315.5625 -197.539062 315.5625 -202.546875 315.5625 -207.546875 C 315.5625 -212.554688 315.5625 -217.253906 315.5625 -221.640625 C 295.519531 -221.640625 272.664062 -220.539062 247 -218.34375 C 221.332031 -216.15625 196.757812 -211.148438 173.28125 -203.328125 C 149.800781 -195.503906 130.390625 -183.140625 115.046875 -166.234375 C 99.703125 -149.328125 92.03125 -126.160156 92.03125 -96.734375 C 92.03125 -76.066406 98.914062 -58.375 112.6875 -43.65625 C 126.46875 -28.945312 144.941406 -21.59375 168.109375 -21.59375 Z M 168.109375 -21.59375 "/></g></g><g style="fill:#ffffff;fill-opacity:1;"><g transform="translate(1094.205222, 769.586374)"><path style="stroke:none" d="M 86.40625 -482.71875 C 76.382812 -482.71875 68.242188 -487.097656 61.984375 -495.859375 C 55.722656 -504.628906 51.179688 -514.648438 48.359375 -525.921875 C 45.546875 -537.191406 44.140625 -546.269531 44.140625 -553.15625 C 44.140625 -567.5625 48.675781 -578.207031 57.75 -585.09375 C 66.832031 -591.976562 76.695312 -595.421875 87.34375 -595.421875 C 97.988281 -595.421875 107.691406 -591.976562 116.453125 -585.09375 C 125.222656 -578.207031 129.609375 -567.5625 129.609375 -553.15625 C 129.609375 -546.269531 128.039062 -537.191406 124.90625 -525.921875 C 121.78125 -514.648438 117.082031 -504.628906 110.8125 -495.859375 C 104.550781 -487.097656 96.414062 -482.71875 86.40625 -482.71875 Z M 111.765625 -435.765625 C 114.265625 -437.015625 116.765625 -437.328125 119.265625 -436.703125 C 121.773438 -436.078125 123.03125 -434.203125 123.03125 -431.078125 L 123.03125 46.015625 C 123.03125 81.078125 116.296875 109.878906 102.828125 132.421875 C 89.367188 154.960938 71.679688 171.550781 49.765625 182.1875 C 27.859375 192.832031 4.382812 198.15625 -20.65625 198.15625 C -26.914062 198.15625 -33.332031 197.84375 -39.90625 197.21875 C -46.488281 196.59375 -53.222656 195.65625 -60.109375 194.40625 C -76.390625 191.269531 -86.5625 184.847656 -90.625 175.140625 C -94.695312 165.441406 -94.382812 156.207031 -89.6875 147.4375 C -84.988281 138.675781 -77.320312 134.296875 -66.6875 134.296875 C -59.789062 134.296875 -51.648438 137.113281 -42.265625 142.75 C -36.003906 147.132812 -28.800781 150.734375 -20.65625 153.546875 C -12.519531 156.367188 -4.382812 157.78125 3.75 157.78125 C 11.269531 157.78125 18.628906 156.210938 25.828125 153.078125 C 33.023438 149.953125 39.441406 144.945312 45.078125 138.0625 C 51.335938 130.539062 55.09375 119.109375 56.34375 103.765625 C 57.601562 88.429688 58.234375 73.878906 58.234375 60.109375 L 58.234375 -333.40625 C 58.234375 -350.300781 57.132812 -362.191406 54.9375 -369.078125 C 52.75 -375.972656 48.050781 -380.046875 40.84375 -381.296875 C 33.644531 -382.546875 22.535156 -383.171875 7.515625 -383.171875 C 3.128906 -383.171875 0.3125 -385.519531 -0.9375 -390.21875 C -2.1875 -394.914062 0.941406 -398.203125 8.453125 -400.078125 C 25.984375 -405.085938 43.671875 -410.410156 61.515625 -416.046875 C 79.359375 -421.679688 96.109375 -428.253906 111.765625 -435.765625 Z M 111.765625 -435.765625 "/></g></g><g style="fill:#ffffff;fill-opacity:1;"><g transform="translate(1251.962821, 769.586374)"><path style="stroke:none" d="M 421.6875 -246.0625 C 421.6875 -237.914062 419.179688 -230.867188 414.171875 -224.921875 C 409.160156 -218.972656 401.332031 -216 390.6875 -216 L 91.09375 -216 C 91.71875 -169.675781 99.859375 -132.113281 115.515625 -103.3125 C 131.171875 -74.507812 151.207031 -53.6875 175.625 -40.84375 C 200.039062 -28.007812 225.710938 -21.910156 252.640625 -22.546875 C 280.179688 -23.171875 305.535156 -28.957031 328.703125 -39.90625 C 351.867188 -50.863281 370.648438 -68.550781 385.046875 -92.96875 C 388.804688 -99.238281 393.503906 -102.375 399.140625 -102.375 C 403.523438 -102.375 406.96875 -100.179688 409.46875 -95.796875 C 411.976562 -91.410156 411.664062 -86.398438 408.53125 -80.765625 C 394.757812 -55.097656 372.375 -34.4375 341.375 -18.78125 C 310.382812 -3.125 275.796875 4.703125 237.609375 4.703125 C 211.304688 4.703125 185.320312 0.789062 159.65625 -7.03125 C 133.988281 -14.863281 110.664062 -27.390625 89.6875 -44.609375 C 68.71875 -61.828125 51.96875 -84.519531 39.4375 -112.6875 C 26.914062 -140.863281 20.34375 -174.988281 19.71875 -215.0625 C 19.09375 -258.894531 26.921875 -297.554688 43.203125 -331.046875 C 59.484375 -364.546875 83.117188 -390.84375 114.109375 -409.9375 C 145.097656 -429.039062 181.878906 -438.59375 224.453125 -438.59375 C 263.273438 -438.59375 297.398438 -430.765625 326.828125 -415.109375 C 356.253906 -399.453125 379.421875 -377.222656 396.328125 -348.421875 C 413.234375 -319.617188 421.6875 -285.5 421.6875 -246.0625 Z M 309.921875 -242.296875 C 328.078125 -242.296875 340.910156 -246.207031 348.421875 -254.03125 C 355.941406 -261.863281 359.703125 -273.609375 359.703125 -289.265625 C 359.703125 -309.921875 354.847656 -329.484375 345.140625 -347.953125 C 335.429688 -366.421875 321.1875 -381.601562 302.40625 -393.5 C 283.625 -405.394531 260.144531 -411.34375 231.96875 -411.34375 C 186.257812 -410.09375 152.445312 -394.128906 130.53125 -363.453125 C 108.625 -332.773438 96.101562 -292.390625 92.96875 -242.296875 Z M 309.921875 -242.296875 "/></g></g><g style="fill:#ffffff;fill-opacity:1;"><g transform="translate(1711.150121, 769.586374)"><path style="stroke:none" d="M 421.6875 -246.0625 C 421.6875 -237.914062 419.179688 -230.867188 414.171875 -224.921875 C 409.160156 -218.972656 401.332031 -216 390.6875 -216 L 91.09375 -216 C 91.71875 -169.675781 99.859375 -132.113281 115.515625 -103.3125 C 131.171875 -74.507812 151.207031 -53.6875 175.625 -40.84375 C 200.039062 -28.007812 225.710938 -21.910156 252.640625 -22.546875 C 280.179688 -23.171875 305.535156 -28.957031 328.703125 -39.90625 C 351.867188 -50.863281 370.648438 -68.550781 385.046875 -92.96875 C 388.804688 -99.238281 393.503906 -102.375 399.140625 -102.375 C 403.523438 -102.375 406.96875 -100.179688 409.46875 -95.796875 C 411.976562 -91.410156 411.664062 -86.398438 408.53125 -80.765625 C 394.757812 -55.097656 372.375 -34.4375 341.375 -18.78125 C 310.382812 -3.125 275.796875 4.703125 237.609375 4.703125 C 211.304688 4.703125 185.320312 0.789062 159.65625 -7.03125 C 133.988281 -14.863281 110.664062 -27.390625 89.6875 -44.609375 C 68.71875 -61.828125 51.96875 -84.519531 39.4375 -112.6875 C 26.914062 -140.863281 20.34375 -174.988281 19.71875 -215.0625 C 19.09375 -258.894531 26.921875 -297.554688 43.203125 -331.046875 C 59.484375 -364.546875 83.117188 -390.84375 114.109375 -409.9375 C 145.097656 -429.039062 181.878906 -438.59375 224.453125 -438.59375 C 263.273438 -438.59375 297.398438 -430.765625 326.828125 -415.109375 C 356.253906 -399.453125 379.421875 -377.222656 396.328125 -348.421875 C 413.234375 -319.617188 421.6875 -285.5 421.6875 -246.0625 Z M 309.921875 -242.296875 C 328.078125 -242.296875 340.910156 -246.207031 348.421875 -254.03125 C 355.941406 -261.863281 359.703125 -273.609375 359.703125 -289.265625 C 359.703125 -309.921875 354.847656 -329.484375 345.140625 -347.953125 C 335.429688 -366.421875 321.1875 -381.601562 302.40625 -393.5 C 283.625 -405.394531 260.144531 -411.34375 231.96875 -411.34375 C 186.257812 -410.09375 152.445312 -394.128906 130.53125 -363.453125 C 108.625 -332.773438 96.101562 -292.390625 92.96875 -242.296875 Z M 309.921875 -242.296875 "/></g></g><g style="fill:#ffffff;fill-opacity:1;"><g transform="translate(2170.337421, 769.586374)"><path style="stroke:none" d="M 492.125 -435.765625 C 497.125 -435.765625 499.625 -433.101562 499.625 -427.78125 C 499.625 -422.457031 497.4375 -419.484375 493.0625 -418.859375 C 480.539062 -416.984375 468.332031 -415.421875 456.4375 -414.171875 C 444.539062 -412.921875 433.582031 -406.972656 423.5625 -396.328125 C 407.28125 -358.128906 392.722656 -323.691406 379.890625 -293.015625 C 367.054688 -262.335938 354.691406 -232.753906 342.796875 -204.265625 C 330.898438 -175.773438 318.21875 -145.25 304.75 -112.6875 C 291.289062 -80.132812 275.796875 -42.570312 258.265625 0 C 244.492188 3.757812 233.535156 2.195312 225.390625 -4.6875 C 217.253906 -11.582031 210.367188 -21.289062 204.734375 -33.8125 L 61.046875 -376.609375 C 54.785156 -392.253906 47.269531 -402.425781 38.5 -407.125 C 29.738281 -411.820312 20.347656 -414.484375 10.328125 -415.109375 C 0.304688 -415.734375 -10.019531 -416.984375 -20.65625 -418.859375 C -25.039062 -419.484375 -27.234375 -422.457031 -27.234375 -427.78125 C -27.234375 -433.101562 -24.726562 -435.765625 -19.71875 -435.765625 L 174.6875 -435.765625 C 179.695312 -435.765625 182.203125 -433.101562 182.203125 -427.78125 C 182.203125 -422.457031 180.007812 -419.484375 175.625 -418.859375 C 165.601562 -417.609375 156.363281 -416.515625 147.90625 -415.578125 C 139.457031 -414.640625 133.507812 -411.976562 130.0625 -407.59375 C 126.625 -403.207031 126.785156 -395.066406 130.546875 -383.171875 C 142.441406 -354.992188 152.613281 -330.570312 161.0625 -309.90625 C 169.519531 -289.25 177.660156 -269.21875 185.484375 -249.8125 C 193.304688 -230.40625 202.070312 -208.804688 211.78125 -185.015625 C 221.488281 -161.222656 233.851562 -131.796875 248.875 -96.734375 C 255.132812 -81.703125 261.082031 -81.703125 266.71875 -96.734375 L 386.9375 -382.234375 C 391.3125 -394.753906 390.367188 -403.207031 384.109375 -407.59375 C 377.847656 -411.976562 369.238281 -414.484375 358.28125 -415.109375 C 347.332031 -415.734375 336.847656 -416.984375 326.828125 -418.859375 C 322.441406 -419.484375 320.40625 -422.457031 320.71875 -427.78125 C 321.03125 -433.101562 323.378906 -435.765625 327.765625 -435.765625 Z M 492.125 -435.765625 "/></g></g></g></svg>