<svg xmlns="http://www.w3.org/2000/svg" xmlns:xlink="http://www.w3.org/1999/xlink" width="3628" zoomAndPan="magnify" viewBox="0 0 2721 1020.749948" height="1361" preserveAspectRatio="xMidYMid meet" version="1.2"><defs/><g id="5d01f853f7"><g style="fill:#ffffff;fill-opacity:1;"><g transform="translate(162.40021, 778.898763)"><path style="stroke:none" d="M 122.332031 0 L 66.261719 0 L 66.261719 -742.148438 L 252.820312 -742.148438 C 320.101562 -742.148438 370.566406 -722.78125 404.207031 -684.039062 C 437.847656 -645.300781 454.667969 -594.671875 454.667969 -532.144531 C 454.667969 -469.28125 437.847656 -418.136719 404.207031 -378.71875 C 381.367188 -351.960938 350.777344 -334.28125 312.433594 -325.691406 L 482.191406 0 L 418.476562 0 L 253.238281 -319.59375 C 253.097656 -319.59375 252.960938 -319.59375 252.820312 -319.59375 L 122.332031 -319.59375 Z M 122.332031 -691.6875 L 122.332031 -369.035156 L 252.820312 -369.035156 C 306.851562 -369.035156 344.652344 -384.242188 366.230469 -414.65625 C 387.808594 -445.066406 398.597656 -484.0625 398.597656 -531.636719 C 398.597656 -579.546875 387.808594 -618.117188 366.230469 -647.339844 C 344.652344 -676.566406 306.851562 -691.347656 252.820312 -691.6875 Z M 122.332031 -691.6875 "/></g></g><g style="fill:#ffffff;fill-opacity:1;"><g transform="translate(648.670652, 778.898763)"><path style="stroke:none" d="M 70.851562 -28.800781 C 44.003906 -52.414062 30.582031 -86.652344 30.582031 -131.507812 C 30.582031 -176.703125 48 -212.808594 82.828125 -239.820312 C 117.660156 -266.835938 164.300781 -280.34375 222.746094 -280.34375 L 334.882812 -280.34375 L 334.882812 -328.769531 C 334.882812 -361.050781 326.390625 -385.347656 309.398438 -401.65625 C 292.40625 -417.96875 264.882812 -426.125 226.824219 -426.125 C 189.445312 -426.125 160.730469 -419.074219 140.683594 -404.96875 C 120.632812 -390.867188 110.609375 -370.226562 110.609375 -343.039062 L 110.609375 -330.804688 L 55.558594 -330.804688 L 55.558594 -349.667969 C 55.558594 -385.007812 70.851562 -414.910156 101.433594 -439.375 C 132.015625 -463.84375 173.984375 -476.074219 227.335938 -476.074219 C 278.304688 -476.074219 318.0625 -464.949219 346.609375 -442.691406 C 375.152344 -420.433594 389.425781 -382.457031 389.425781 -328.769531 L 389.425781 -122.332031 C 389.425781 -100.246094 390.867188 -79.347656 393.757812 -59.636719 C 396.644531 -39.929688 401.316406 -22.765625 407.773438 -8.15625 L 407.773438 0 L 357.3125 0 C 352.214844 -8.835938 347.882812 -20.050781 344.3125 -33.640625 C 340.746094 -47.234375 338.113281 -60.996094 336.414062 -74.929688 C 325.539062 -53.859375 307.019531 -35 280.855469 -18.351562 C 254.6875 -1.699219 221.386719 6.625 180.949219 6.625 C 134.394531 6.625 97.695312 -5.183594 70.851562 -28.800781 Z M 121.058594 -206.945312 C 97.101562 -188.933594 85.121094 -164.300781 85.121094 -133.035156 C 85.121094 -103.132812 94.210938 -80.621094 112.394531 -65.5 C 130.574219 -50.378906 156.484375 -42.816406 190.125 -42.816406 C 226.484375 -42.816406 259.699219 -55.132812 289.773438 -79.769531 C 319.847656 -104.40625 334.882812 -132.1875 334.882812 -163.109375 L 334.882812 -233.960938 L 232.429688 -233.960938 C 182.140625 -233.960938 145.015625 -224.957031 121.058594 -206.945312 Z M 121.058594 -206.945312 "/></g></g><g style="fill:#ffffff;fill-opacity:1;"><g transform="translate(1097.73178, 778.898763)"><path style="stroke:none" d="M 61.167969 -615.484375 C 54.710938 -623.128906 51.480469 -632.390625 51.480469 -643.261719 C 51.480469 -654.136719 54.792969 -663.3125 61.421875 -670.789062 C 68.046875 -678.265625 77.476562 -682.003906 89.710938 -682.003906 C 101.945312 -682.003906 111.289062 -678.347656 117.746094 -671.042969 C 124.199219 -663.738281 127.429688 -654.476562 127.429688 -643.261719 C 127.429688 -632.390625 124.117188 -623.128906 117.488281 -615.484375 C 110.863281 -607.839844 101.433594 -604.015625 89.199219 -604.015625 C 76.96875 -604.015625 67.621094 -607.839844 61.167969 -615.484375 Z M -37.972656 218.667969 C -48.679688 216.289062 -57.089844 213.910156 -63.203125 211.53125 L -63.203125 162.601562 C -57.769531 164.640625 -50.039062 166.761719 -40.011719 168.972656 C -29.988281 171.179688 -20.898438 172.285156 -12.742188 172.285156 C 10.703125 172.285156 29.054688 164.128906 42.304688 147.816406 C 55.558594 131.507812 62.183594 102.113281 62.183594 59.636719 L 62.183594 -465.882812 L 116.726562 -465.882812 L 116.726562 45.875 C 116.726562 107.039062 106.277344 151.726562 85.378906 179.929688 C 64.480469 208.132812 33.8125 222.238281 -6.625 222.238281 C -16.820312 222.238281 -27.269531 221.046875 -37.972656 218.667969 Z M -37.972656 218.667969 "/></g></g><g style="fill:#ffffff;fill-opacity:1;"><g transform="translate(1276.642529, 778.898763)"><path style="stroke:none" d="M 81.808594 -53.773438 C 46.300781 -96.421875 28.542969 -153.59375 28.542969 -225.296875 L 28.542969 -241.605469 C 28.542969 -311.945312 46.554688 -368.609375 82.574219 -411.597656 C 118.59375 -454.582031 166.167969 -476.074219 225.296875 -476.074219 C 284.761719 -476.074219 330.128906 -456.28125 361.390625 -416.695312 C 392.652344 -377.105469 408.285156 -320.953125 408.285156 -248.230469 L 408.285156 -226.316406 L 82.574219 -226.316406 L 82.574219 -225.296875 C 82.574219 -169.226562 95.402344 -124.117188 121.058594 -89.964844 C 146.714844 -55.8125 183.5 -38.738281 231.410156 -38.738281 C 264.035156 -38.738281 291.726562 -45.195312 314.496094 -58.109375 C 337.261719 -71.019531 354.933594 -88.011719 367.507812 -109.078125 L 404.207031 -73.398438 C 391.632812 -52.332031 371.074219 -33.132812 342.53125 -15.800781 C 313.984375 1.527344 277.285156 10.195312 232.429688 10.195312 C 167.527344 10.195312 117.320312 -11.128906 81.808594 -53.773438 Z M 84.003906 -273.71875 L 353.234375 -273.71875 L 353.234375 -276.777344 C 353.234375 -315.175781 343.632812 -349.835938 324.433594 -380.757812 C 305.234375 -411.683594 272.1875 -427.144531 225.296875 -427.144531 C 178.402344 -427.144531 142.890625 -410.238281 118.765625 -376.425781 C 99.433594 -349.335938 87.847656 -315.097656 84.003906 -273.71875 Z M 84.003906 -273.71875 "/></g></g><g style="fill:#ffffff;fill-opacity:1;"><g transform="translate(1709.902346, 778.898763)"><path style="stroke:none" d="M 81.808594 -53.773438 C 46.300781 -96.421875 28.542969 -153.59375 28.542969 -225.296875 L 28.542969 -241.605469 C 28.542969 -311.945312 46.554688 -368.609375 82.574219 -411.597656 C 118.59375 -454.582031 166.167969 -476.074219 225.296875 -476.074219 C 284.761719 -476.074219 330.128906 -456.28125 361.390625 -416.695312 C 392.652344 -377.105469 408.285156 -320.953125 408.285156 -248.230469 L 408.285156 -226.316406 L 82.574219 -226.316406 L 82.574219 -225.296875 C 82.574219 -169.226562 95.402344 -124.117188 121.058594 -89.964844 C 146.714844 -55.8125 183.5 -38.738281 231.410156 -38.738281 C 264.035156 -38.738281 291.726562 -45.195312 314.496094 -58.109375 C 337.261719 -71.019531 354.933594 -88.011719 367.507812 -109.078125 L 404.207031 -73.398438 C 391.632812 -52.332031 371.074219 -33.132812 342.53125 -15.800781 C 313.984375 1.527344 277.285156 10.195312 232.429688 10.195312 C 167.527344 10.195312 117.320312 -11.128906 81.808594 -53.773438 Z M 84.003906 -273.71875 L 353.234375 -273.71875 L 353.234375 -276.777344 C 353.234375 -315.175781 343.632812 -349.835938 324.433594 -380.757812 C 305.234375 -411.683594 272.1875 -427.144531 225.296875 -427.144531 C 178.402344 -427.144531 142.890625 -410.238281 118.765625 -376.425781 C 99.433594 -349.335938 87.847656 -315.097656 84.003906 -273.71875 Z M 84.003906 -273.71875 "/></g></g><g style="fill:#ffffff;fill-opacity:1;"><g transform="translate(2143.162163, 778.898763)"><path style="stroke:none" d="M 179.421875 0 L 0 -465.882812 L 58.109375 -465.882812 L 184.007812 -122.84375 C 188.765625 -109.929688 193.183594 -97.695312 197.261719 -86.140625 C 201.339844 -74.589844 204.226562 -66.09375 205.925781 -60.65625 L 208.472656 -60.65625 C 210.511719 -66.09375 213.65625 -74.589844 217.902344 -86.140625 C 222.152344 -97.695312 226.65625 -109.929688 231.410156 -122.84375 L 358.332031 -465.882812 L 415.417969 -465.882812 L 236 0 Z M 179.421875 0 "/></g></g></g></svg>